<?xml version="1.0" encoding="UTF-8"?>
<svg xmlns="http://www.w3.org/2000/svg" xmlns:xlink="http://www.w3.org/1999/xlink" width="32px" height="px" viewBox="0 0 32 32" version="1.1">
<g id="surface1">
<path style=" stroke:none;fill-rule:nonzero;fill:rgb(0%,0%,0%);fill-opacity:1;" d="M 22.046875 31.789062 L 9.917969 31.789062 C 4.546875 31.789062 0.175781 27.417969 0.175781 22.046875 L 0.175781 9.917969 C 0.175781 4.546875 4.546875 0.175781 9.917969 0.175781 L 22.046875 0.175781 C 27.417969 0.175781 31.789062 4.546875 31.789062 9.917969 L 31.789062 22.046875 C 31.789062 27.417969 27.417969 31.789062 22.046875 31.789062 Z M 9.917969 2.632812 C 5.902344 2.632812 2.632812 5.902344 2.632812 9.917969 L 2.632812 22.046875 C 2.632812 26.0625 5.902344 29.328125 9.917969 29.328125 L 22.046875 29.328125 C 26.0625 29.328125 29.328125 26.0625 29.328125 22.046875 L 29.328125 9.917969 C 29.328125 5.902344 26.0625 2.632812 22.046875 2.632812 Z M 9.917969 2.632812 "/>
<path style=" stroke:none;fill-rule:nonzero;fill:rgb(0%,0%,0%);fill-opacity:1;" d="M 16.070312 24.929688 C 11.1875 24.929688 7.214844 20.953125 7.214844 16.070312 C 7.214844 11.1875 11.1875 7.214844 16.070312 7.214844 C 20.953125 7.214844 24.929688 11.1875 24.929688 16.070312 C 24.929688 20.953125 20.957031 24.929688 16.070312 24.929688 Z M 16.070312 9.671875 C 12.542969 9.671875 9.671875 12.542969 9.671875 16.070312 C 9.671875 19.597656 12.542969 22.46875 16.070312 22.46875 C 19.597656 22.46875 22.46875 19.597656 22.46875 16.070312 C 22.46875 12.542969 19.601562 9.671875 16.070312 9.671875 Z M 16.070312 9.671875 "/>
<path style=" stroke:none;fill-rule:nonzero;fill:rgb(0%,0%,0%);fill-opacity:1;" d="M 26.679688 7.179688 C 26.679688 6.230469 25.910156 5.457031 24.957031 5.457031 C 24.007812 5.457031 23.238281 6.230469 23.238281 7.179688 C 23.238281 8.128906 24.007812 8.898438 24.957031 8.898438 C 25.910156 8.898438 26.679688 8.128906 26.679688 7.179688 Z M 26.679688 7.179688 "/>
</g>
</svg>
