<?xml version="1.0" encoding="UTF-8"?>
<svg xmlns="http://www.w3.org/2000/svg" xmlns:xlink="http://www.w3.org/1999/xlink" width="32px" height="px" viewBox="0 0 32 32" version="1.1">
<g id="surface1">
<path style=" stroke:none;fill-rule:nonzero;fill:rgb(0%,0%,0%);fill-opacity:1;" d="M 8.917969 8.257812 L 20.472656 23.707031 L 23.089844 23.707031 L 11.535156 8.257812 Z M 8.917969 8.257812 "/>
<path style=" stroke:none;fill-rule:nonzero;fill:rgb(0%,0%,0%);fill-opacity:1;" d="M 25.589844 0.175781 L 6.375 0.175781 C 2.953125 0.175781 0.175781 2.953125 0.175781 6.375 L 0.175781 25.589844 C 0.175781 29.011719 2.953125 31.789062 6.375 31.789062 L 25.589844 31.789062 C 29.011719 31.789062 31.789062 29.011719 31.789062 25.589844 L 31.789062 6.375 C 31.789062 2.953125 29.011719 0.175781 25.589844 0.175781 Z M 19.855469 24.941406 L 14.597656 17.90625 L 8.085938 24.941406 L 6.410156 24.941406 L 13.847656 16.90625 L 6.457031 7.023438 L 12.152344 7.023438 L 17 13.503906 L 22.996094 7.023438 L 24.667969 7.023438 L 17.746094 14.503906 L 25.554688 24.941406 Z M 19.855469 24.941406 "/>
</g>
</svg>
