<?xml version="1.0" encoding="UTF-8"?>
<svg xmlns="http://www.w3.org/2000/svg" xmlns:xlink="http://www.w3.org/1999/xlink" width="32px" height="px" viewBox="0 0 32 32" version="1.1">
<g id="surface1">
<path style=" stroke:none;fill-rule:nonzero;fill:rgb(0%,0%,0%);fill-opacity:1;" d="M 31.128906 8.375 C 30.765625 7.011719 29.691406 5.941406 28.332031 5.578125 C 25.867188 4.917969 15.980469 4.917969 15.980469 4.917969 C 15.980469 4.917969 6.097656 4.917969 3.632812 5.578125 C 2.269531 5.941406 1.199219 7.011719 0.835938 8.375 C 0.175781 10.839844 0.175781 15.980469 0.175781 15.980469 C 0.175781 15.980469 0.175781 21.125 0.835938 23.589844 C 1.199219 24.949219 2.269531 26.023438 3.632812 26.386719 C 6.097656 27.046875 15.980469 27.046875 15.980469 27.046875 C 15.980469 27.046875 25.867188 27.046875 28.332031 26.386719 C 29.691406 26.023438 30.765625 24.949219 31.128906 23.589844 C 31.789062 21.125 31.789062 15.980469 31.789062 15.980469 C 31.789062 15.980469 31.789062 10.839844 31.128906 8.375 Z M 12.820312 20.722656 L 12.820312 11.238281 L 21.035156 15.980469 Z M 12.820312 20.722656 "/>
</g>
</svg>
